<?xml version="1.0" standalone="no"?>
<!DOCTYPE svg PUBLIC "-//W3C//DTD SVG 20010904//EN"
 "http://www.w3.org/TR/2001/REC-SVG-20010904/DTD/svg10.dtd">
<svg version="1.0" xmlns="http://www.w3.org/2000/svg"
 width="1200.000000pt" height="1200.000000pt" viewBox="0 0 1200.000000 1200.000000"
 preserveAspectRatio="xMidYMid meet">
<metadata>
Created by potrace 1.11, written by Peter Selinger 2001-2013
</metadata>
<g transform="translate(0.000000,1200.000000) scale(0.100000,-0.100000)"
fill="#000000" stroke="none">
<path d="M5945 8784 c-22 -8 -47 -17 -55 -21 -8 -3 -19 -7 -25 -8 -5 -2 -44
-15 -85 -30 -41 -15 -95 -34 -120 -42 -25 -8 -54 -19 -65 -23 -19 -8 -54 -21
-65 -25 -3 -1 -18 -7 -35 -14 -56 -22 -170 -65 -177 -67 -5 -1 -10 -3 -13 -4
-3 -1 -9 -3 -14 -4 -5 0 -13 -4 -17 -8 -4 -5 -16 -8 -26 -8 -10 0 -18 -4 -18
-10 0 -6 -3 -9 -7 -8 -5 0 -17 -2 -28 -6 -63 -24 -154 -59 -180 -71 -43 -19
-258 -106 -270 -109 -5 -2 -32 -13 -60 -25 -27 -13 -70 -31 -95 -41 -25 -10
-63 -26 -85 -36 -22 -10 -42 -18 -45 -19 -3 -1 -21 -8 -40 -17 -19 -8 -91 -40
-160 -70 -120 -53 -222 -100 -340 -156 -30 -14 -57 -26 -60 -27 -3 0 -90 -42
-194 -93 -103 -51 -192 -92 -197 -92 -5 0 -9 -5 -9 -10 0 -6 -3 -9 -7 -8 -11
3 -237 -113 -241 -123 -2 -5 -11 -9 -21 -9 -9 0 -21 -4 -27 -9 -5 -5 -54 -33
-109 -62 -55 -29 -113 -60 -128 -70 -26 -15 -64 -15 -77 0 -6 7 -99 44 -154
61 -42 13 -180 18 -231 8 -61 -12 -143 -49 -205 -91 -46 -32 -160 -139 -160
-151 0 -3 -8 -15 -17 -25 -31 -33 -38 -44 -74 -106 -49 -84 -121 -246 -120
-270 0 -2 -7 -21 -16 -42 -8 -21 -17 -49 -20 -63 -7 -38 -9 -43 -16 -65 -7
-24 -17 -70 -22 -105 -2 -14 -4 -25 -5 -25 -1 0 -4 -13 -5 -30 -2 -16 -6 -39
-8 -50 -19 -81 -27 -425 -13 -565 11 -111 27 -228 40 -290 8 -35 17 -73 20
-85 1 -5 8 -37 15 -70 7 -33 17 -67 22 -76 4 -9 10 -27 13 -40 5 -24 34 -108
57 -164 7 -16 13 -36 15 -43 8 -41 156 -333 203 -401 10 -14 21 -34 24 -43 4
-10 11 -18 17 -18 5 0 10 -6 10 -13 0 -7 7 -22 15 -32 21 -29 96 -127 125
-165 57 -75 324 -350 340 -350 4 0 24 -16 46 -36 21 -20 86 -69 144 -110 58
-40 110 -77 115 -82 6 -4 57 -35 115 -67 58 -33 107 -63 108 -67 2 -4 12 -8
22 -8 9 0 23 -7 30 -15 6 -8 15 -14 18 -14 17 2 52 -14 52 -24 0 -6 3 -8 6 -4
3 3 21 -3 40 -14 19 -10 41 -19 49 -19 19 0 91 -74 151 -155 16 -21 36 -46 44
-55 8 -9 35 -40 60 -70 84 -100 195 -225 242 -273 27 -27 48 -50 48 -52 0 -9
309 -306 396 -380 175 -150 438 -340 578 -417 75 -42 256 -131 296 -146 60
-23 174 -64 190 -67 8 -2 15 -4 15 -5 0 -2 19 -7 70 -19 22 -5 50 -12 61 -14
20 -5 48 -10 134 -24 85 -13 342 -7 438 12 11 2 37 6 58 10 75 11 181 33 259
51 11 3 31 7 44 10 44 9 176 46 186 52 6 4 20 8 33 10 13 1 47 12 75 23 29 12
52 20 52 19 0 -3 41 13 82 31 24 10 47 19 53 19 6 0 18 4 28 9 9 6 69 35 132
66 129 63 151 76 265 152 107 71 129 87 133 96 2 4 8 7 13 7 5 0 17 8 27 18
11 9 39 33 63 52 59 46 304 292 354 355 22 27 48 59 58 70 23 25 171 223 218
290 18 28 37 52 42 53 4 2 7 10 7 18 0 8 3 14 8 14 4 0 16 17 27 38 11 20 28
46 37 56 10 11 20 28 24 38 3 10 9 18 14 18 4 0 11 8 14 18 3 9 12 26 19 37
20 34 100 160 102 163 2 2 21 6 43 8 21 3 70 14 108 25 38 11 76 22 84 24 35
8 251 95 260 105 3 3 36 20 73 39 58 29 209 129 262 173 57 47 221 213 261
264 73 92 95 122 97 131 0 4 9 17 19 27 10 11 18 26 18 33 0 7 4 13 8 13 8 0
18 17 91 155 38 71 116 250 128 292 1 7 5 19 6 25 2 7 10 27 16 43 7 17 14 37
17 45 2 8 8 33 14 55 14 49 31 115 35 135 2 8 9 38 15 65 7 28 14 65 16 84 2
19 8 57 13 85 44 231 47 652 7 916 -7 46 -12 74 -21 133 -3 17 -19 85 -36 150
-27 106 -36 137 -65 212 -4 11 -8 22 -9 25 -18 51 -94 206 -122 248 -13 18
-23 35 -23 37 0 8 -29 40 -98 110 -60 60 -172 132 -186 118 -3 -4 -6 -1 -6 5
0 6 -9 9 -20 7 -11 -2 -22 0 -24 4 -3 4 -35 5 -73 4 -96 -5 -103 -6 -103 -15
0 -4 -3 -7 -7 -6 -13 3 -56 -14 -71 -28 -7 -8 -17 -12 -21 -9 -9 5 -73 -49
-72 -62 0 -13 -20 -6 -108 37 -45 22 -83 40 -85 40 -2 0 -42 18 -88 39 -46 21
-166 76 -268 121 -102 45 -205 91 -230 103 -25 11 -49 21 -55 22 -5 2 -41 18
-80 36 -38 18 -72 34 -75 34 -16 4 -74 29 -165 70 -33 15 -78 34 -100 43 -22
8 -44 19 -49 24 -6 4 -18 8 -28 8 -10 0 -18 5 -18 11 0 5 -4 8 -9 4 -5 -3 -12
-1 -16 5 -4 6 -10 8 -15 5 -5 -3 -11 -1 -15 5 -3 5 -15 10 -26 10 -10 0 -19 5
-19 10 0 6 -7 10 -15 10 -8 0 -23 4 -33 10 -21 11 -159 70 -165 70 -2 0 -22 8
-43 17 -22 9 -41 17 -44 18 -3 1 -23 9 -45 19 -22 10 -130 53 -240 97 -110 44
-209 84 -220 89 -11 5 -51 20 -90 35 -38 14 -79 30 -90 35 -43 18 -135 52
-142 53 -4 0 -39 13 -77 29 -38 15 -76 28 -85 28 -10 0 -21 4 -27 9 -5 6 -43
21 -84 34 -41 14 -88 31 -105 38 -28 11 -43 16 -72 22 -7 2 -16 6 -19 10 -4 4
-18 7 -31 7 -12 0 -23 5 -23 10 0 6 -3 9 -7 8 -5 -1 -26 4 -48 11 -62 19 -87
20 -130 5z m3661 -1242 c46 -13 103 -50 160 -103 46 -42 104 -114 104 -128 0
-5 8 -15 18 -20 9 -6 13 -11 7 -11 -7 0 -6 -3 0 -8 12 -8 105 -198 111 -224 1
-5 3 -10 4 -13 3 -5 3 -6 15 -50 4 -16 12 -36 18 -42 5 -7 6 -13 2 -13 -4 0
-2 -7 5 -15 7 -8 10 -15 7 -15 -3 0 -1 -15 4 -32 15 -49 17 -57 33 -131 8 -38
18 -87 21 -110 4 -23 10 -62 15 -86 4 -25 6 -50 3 -58 -3 -7 -1 -13 3 -13 23
0 23 -596 0 -716 -2 -10 -7 -41 -10 -68 -15 -112 -39 -228 -67 -336 -35 -132
-116 -362 -131 -371 -5 -3 -10 -10 -9 -15 1 -20 -12 -54 -20 -54 -5 0 -9 -6
-9 -14 0 -38 -217 -386 -241 -386 -5 0 -9 -5 -9 -11 0 -41 -364 -369 -410
-369 -5 0 -10 -4 -10 -8 0 -14 -239 -133 -315 -158 -5 -2 -37 -13 -70 -24 -33
-12 -68 -23 -77 -26 -10 -2 -28 -7 -40 -10 -74 -20 -99 -13 -63 16 8 7 15 18
15 26 0 7 6 19 13 26 12 14 19 26 65 107 13 25 37 66 52 91 15 26 31 57 35 68
3 12 10 22 14 22 4 0 13 16 21 35 8 19 18 35 22 35 5 0 7 4 3 9 -3 5 -1 13 5
16 6 4 26 37 45 73 19 37 53 99 75 137 22 39 45 82 51 98 6 15 15 27 20 27 5
0 8 3 7 8 -1 4 3 17 10 30 7 12 10 22 6 22 -3 0 -1 6 5 13 6 8 9 16 6 18 -5 6
-15 59 -20 113 -2 23 -7 64 -10 91 -12 100 -14 132 -22 245 -15 245 -5 633 22
850 3 25 8 65 10 90 3 25 7 56 10 70 3 14 8 54 11 90 6 73 11 115 14 115 1 0
3 16 5 35 2 19 4 35 5 35 1 0 3 14 4 30 2 17 6 48 9 70 4 22 9 59 12 83 8 70
16 126 21 154 5 32 14 109 18 158 3 34 12 120 22 205 6 51 11 136 13 200 l1
50 83 40 c45 22 93 41 106 42 13 1 25 4 27 6 8 8 99 0 140 -11z m-6877 -95
c77 -27 106 -46 84 -54 -19 -7 -16 -34 11 -94 21 -49 123 -343 131 -379 2 -8
8 -28 15 -45 6 -16 11 -32 11 -35 -1 -13 13 -56 21 -66 5 -7 8 -16 7 -20 -1
-5 1 -16 4 -24 5 -13 31 -105 41 -150 2 -8 10 -35 17 -60 13 -48 14 -51 23
-90 3 -14 12 -54 21 -90 9 -36 19 -76 21 -90 3 -14 9 -41 14 -60 5 -19 11 -46
14 -60 2 -14 13 -74 25 -135 11 -60 23 -126 26 -145 3 -19 8 -48 11 -65 3 -16
7 -50 9 -75 2 -25 4 -45 5 -45 3 0 7 -42 16 -145 14 -181 8 -473 -12 -560 -3
-14 -7 -34 -9 -45 -2 -11 -4 -21 -5 -22 -2 -2 -3 -6 -4 -10 -8 -36 -42 -131
-51 -143 -6 -8 -16 -27 -23 -42 -6 -16 -16 -28 -22 -28 -5 0 -10 -5 -10 -12 0
-18 -89 -99 -128 -115 -19 -8 -43 -22 -54 -33 -19 -17 -19 -19 -3 -51 10 -17
21 -37 27 -43 5 -6 50 -74 101 -150 142 -215 297 -435 334 -474 14 -15 17 -26
6 -19 -5 3 -30 15 -58 27 -66 29 -279 151 -283 162 -2 4 -8 8 -13 8 -11 0 -72
42 -77 53 -2 4 -8 7 -14 7 -8 0 -72 43 -88 60 -3 3 -39 32 -80 65 -81 64 -83
66 -186 166 -84 81 -150 154 -219 243 -16 21 -34 44 -40 50 -10 11 -107 157
-138 208 -60 98 -157 290 -157 312 0 9 -3 16 -8 16 -4 0 -18 33 -32 73 -13 39
-27 77 -30 82 -9 12 -24 67 -22 78 1 4 -2 7 -7 7 -5 0 -8 8 -6 18 1 9 -1 22
-5 27 -4 6 -10 24 -14 40 -4 17 -11 46 -16 65 -15 64 -20 85 -25 115 -3 17 -8
37 -10 45 -7 23 -22 139 -29 220 -2 19 -5 35 -6 35 -7 0 -5 363 2 378 6 11 5
17 -2 17 -6 0 -8 5 -5 10 4 6 8 25 10 43 8 77 18 152 21 158 2 3 6 24 9 45 2
21 18 89 35 149 37 134 34 124 48 158 42 102 57 134 69 148 7 8 13 23 13 32 0
9 4 17 10 17 5 0 12 11 16 25 3 14 9 25 14 25 4 0 11 8 16 19 12 24 59 83 106
132 74 76 194 145 273 156 17 3 31 6 32 7 2 2 36 2 75 1 48 -2 98 -11 147 -28z"/>
</g>
</svg>
